<?xml version="1.0" encoding="UTF-8" standalone="no"?>
<!-- Created with Inkscape (http://www.inkscape.org/) -->

<svg
   version="1.1"
   id="svg1586"
   width="47.304794"
   height="30.44672"
   viewBox="0 0 47.304799 30.446721"
   sodipodi:docname="bike.svg"
   inkscape:version="1.2.2 (732a01da63, 2022-12-09)"
   xmlns:inkscape="http://www.inkscape.org/namespaces/inkscape"
   xmlns:sodipodi="http://sodipodi.sourceforge.net/DTD/sodipodi-0.dtd"
   xmlns="http://www.w3.org/2000/svg"
   xmlns:svg="http://www.w3.org/2000/svg">
  <defs
     id="defs1590" />
  <sodipodi:namedview
     id="namedview1588"
     pagecolor="#ffffff"
     bordercolor="#000000"
     borderopacity="0.25"
     inkscape:showpageshadow="2"
     inkscape:pageopacity="0.0"
     inkscape:pagecheckerboard="0"
     inkscape:deskcolor="#d1d1d1"
     showgrid="false"
     inkscape:zoom="6.0955884"
     inkscape:cx="55.121832"
     inkscape:cy="59.223159"
     inkscape:window-width="1920"
     inkscape:window-height="1009"
     inkscape:window-x="-8"
     inkscape:window-y="-8"
     inkscape:window-maximized="1"
     inkscape:current-layer="g1592" />
  <g
     inkscape:groupmode="layer"
     inkscape:label="Image"
     id="g1592"
     transform="translate(-43.455609,-159.95262)">
    <path
       id="path2145"
       style="fill:#739277;fill-opacity:1"
       d="m 71.025779,159.96295 c -0.84556,0.0385 -1.527467,0.18742 -1.845703,0.47656 -1.709786,1.55347 0.28391,3.93555 3.292968,3.93555 1.634796,0 3.249924,0.45 3.589844,1 0.38918,0.6297 -1.933874,1 -6.271484,1 -6.500386,0 -6.883494,-0.12674 -6.808594,-2.25 0.07016,-1.9882 -0.472628,-2.28536 -4.669922,-2.55469 -4.224424,-0.27107 -4.75,-0.0774 -4.75,1.75 0,1.34941 0.649412,2.05469 1.892578,2.05469 1.041156,0 2.100696,0.5625 2.353516,1.25 0.937496,2.5493 -0.473526,3.75 -4.40625,3.75 -8.953734,0 -13.290605,10.70356 -6.917969,17.07617 4.87337,4.87339 12.615484,3.52432 15.576172,-2.71484 0.877306,-1.84879 2.345693,-3.36133 3.261719,-3.36133 0.916036,0 2.699961,-1.2375 3.964844,-2.75 l 2.298828,-2.75 -0.59961,2.66601 c -0.790556,3.51532 1.978937,9.24052 5.171875,10.69532 10.50937,4.78837 19.594277,-7.8237 11.480469,-15.9375 -1.690222,-1.69023 -3.990242,-2.92383 -5.453125,-2.92383 -2.071652,0 -2.717523,-0.67928 -3.570312,-3.75 -0.572777,-2.0625 -1.043876,-4.26334 -1.046875,-4.89063 -0.005,-1.01567 -4.006296,-1.88704 -6.542969,-1.77148 z m -10.246094,8.41211 h 6.890625 c 3.790274,0 6.892578,0.28306 6.892578,0.6289 0,0.34584 -1.660541,2.48335 -3.689453,4.75 -2.028912,2.26663 -3.94142,4.22887 -4.25,4.36133 -0.30858,0.13246 -1.750342,-2.00504 -3.203125,-4.75 z m 16.341797,1 c 0.24254,0 0.441406,0.45 0.441406,1 0,0.55 -0.476134,1 -1.058594,1 -0.582456,0 -0.781326,-0.45 -0.441406,-1 0.33992,-0.55 0.816054,-1 1.058594,-1 z m -17,1 c 0.24254,0 0.441406,0.45 0.441406,1 0,0.55 -0.476134,1 -1.058594,1 -0.582456,0 -0.781326,-0.45 -0.441406,-1 0.33992,-0.55 0.816054,-1 1.058594,-1 z m -7.103516,2 c 2.861038,0 3.139754,1.33547 1.044922,5 -2.099022,3.67185 -1.893923,4 2.5,4 4.78502,0 5.294059,1.83733 1.365235,4.92773 -1.449163,1.13992 -3.72106,2.07227 -5.046875,2.07227 -3.441805,0 -7.31836,-4.2383 -7.31836,-8 0,-3.82017 3.895384,-8 7.455078,-8 z m 28.982422,0 c 2.785498,0 6.5625,4.60456 6.5625,8 0,1.94837 -0.907856,3.99769 -2.455078,5.54492 -2.999688,2.9997 -6.414912,3.13218 -9.910156,0.38281 -3.253438,-2.55913 -3.690429,-8.66367 -0.806641,-11.27344 2.569659,-2.32551 2.76056,-2.19501 4.171875,2.84571 1.297336,4.63363 3.696148,6.47368 2.607422,2 -0.33463,-1.375 -0.882167,-3.625 -1.216797,-5 -0.463399,-1.90417 -0.212821,-2.5 1.046875,-2.5 z m -23.935547,2.47656 c 0.301276,0.0261 0.640056,0.22659 1.06836,0.58203 0.786639,0.65285 1.429687,1.80681 1.429687,2.56445 0,0.80273 -1.043214,1.37696 -2.5,1.37696 -2.809288,0 -2.94516,-0.29917 -1.429687,-3.13086 0.427124,-0.79809 0.765175,-1.23747 1.140625,-1.35938 0.09386,-0.0305 0.19059,-0.0419 0.291015,-0.0332 z"
       inkscape:export-filename="bike.svg"
       inkscape:export-xdpi="96"
       inkscape:export-ydpi="96" />
  </g>
</svg>
