<?xml version="1.0" encoding="UTF-8" standalone="no"?>
<!-- Created with Inkscape (http://www.inkscape.org/) -->

<svg
   version="1.1"
   id="svg9"
   width="93"
   height="30"
   viewBox="0 0 310 100"
   sodipodi:docname="Logo.svg"
   inkscape:version="1.2.2 (732a01da63, 2022-12-09)"
   xmlns:inkscape="http://www.inkscape.org/namespaces/inkscape"
   xmlns:sodipodi="http://sodipodi.sourceforge.net/DTD/sodipodi-0.dtd"
   xmlns="http://www.w3.org/2000/svg"
   xmlns:svg="http://www.w3.org/2000/svg">
  <defs
     id="defs13" />
  <sodipodi:namedview
     id="namedview11"
     pagecolor="#ffffff"
     bordercolor="#000000"
     borderopacity="0.25"
     inkscape:showpageshadow="2"
     inkscape:pageopacity="0.0"
     inkscape:pagecheckerboard="0"
     inkscape:deskcolor="#d1d1d1"
     showgrid="false"
     inkscape:zoom="3.3872696"
     inkscape:cx="145.39734"
     inkscape:cy="12.399367"
     inkscape:window-width="1920"
     inkscape:window-height="1009"
     inkscape:window-x="-8"
     inkscape:window-y="-8"
     inkscape:window-maximized="1"
     inkscape:current-layer="g15" />
  <g
     inkscape:groupmode="layer"
     inkscape:label="Image"
     id="g15">
    <path
       id="path189"
       style="fill:#739277;stroke-width:1.42273;fill-opacity:1"
       d="M 117.25 13.078125 C 113.04892 13.182013 108.00357 13.922703 103.42969 15.263672 C 72.261385 24.401766 41.947619 52.17915 53.070312 61.410156 C 55.60503 63.513802 63.438203 63.614562 65.482422 61.570312 C 66.400661 60.652076 64.863022 60.44124 61.017578 60.957031 C 55.212504 61.735641 55.154296 61.698086 55.154297 57.216797 C 55.154297 50.72425 58.206276 45.695535 67.041016 37.621094 C 80.244123 25.55422 106.84197 13.599458 118.08203 14.681641 C 122.43565 15.100801 122.76154 15.511134 123.16406 21.029297 C 123.48465 25.424337 121.76219 31.668751 116.40625 45.527344 C 108.8892 64.976796 108.18869 67.642177 110.8125 66.767578 C 111.68863 66.475537 113.87016 62.336908 115.66211 57.570312 C 121.7378 41.408944 134.28151 24.376952 140.11133 24.376953 C 142.69158 24.376953 141.6502 30.062098 136.86328 42.105469 C 131.81175 54.815384 135.08518 54.630541 144.79297 41.658203 C 149.27046 35.675157 154.8227 29.013451 157.13086 26.855469 L 161.32812 22.931641 L 157.26953 35.0625 C 152.78229 48.478891 151.52226 64.170977 154.49805 69.548828 C 155.66615 71.659632 157.59918 72.75 160.17188 72.75 C 164.3362 72.75 170.39453 69.267621 170.39453 66.875 C 170.39453 66.08011 168.70823 66.757116 166.64648 68.378906 C 164.58472 70.000663 162.04654 71.328125 161.00586 71.328125 C 153.18963 71.328125 155.08522 45.087805 164.25391 26.363281 C 168.56628 17.555803 167.46767 14.249567 161.85742 19.142578 C 159.90117 20.848735 154.17494 27.045455 149.12891 32.914062 C 144.08257 38.78267 140.47616 42.303244 141.11719 40.738281 C 143.95411 33.812465 146.2102 25.008074 145.57227 23.345703 C 144.58399 20.770316 138.93923 21.158535 135.26562 24.054688 C 133.55062 25.406628 130.18967 29.001068 127.79688 32.042969 C 122.80495 38.388262 122.68119 38.279 125.57812 30.068359 C 128.15318 22.769975 128.31409 17.013275 126.00586 14.705078 C 124.80761 13.506856 121.45081 12.974232 117.25 13.078125 z M 258.33594 15.841797 C 257.15395 15.841797 246.56219 31.354024 245.41211 34.769531 C 244.98234 36.045871 244.264 35.992251 242.5293 34.560547 C 240.09059 32.547518 240.10624 32.543024 228.01562 39.113281 C 222.30257 42.217929 218.40322 42.050113 216.25195 38.605469 C 214.95444 36.527371 212.93495 35.759766 208.76172 35.759766 C 203.97581 35.759766 202.82794 36.337408 201.69531 39.316406 C 200.95155 41.272618 199.76655 42.873047 199.0625 42.873047 C 198.35845 42.873047 195.78125 43.272688 193.33594 43.761719 C 189.8479 44.459323 188.89062 44.163118 188.89062 42.388672 C 188.89062 36.957428 175.42634 35.930524 173.70898 41.230469 C 173.28916 42.526023 171.6254 46.207491 170.01172 49.412109 C 168.39803 52.6167 167.48365 56.29712 167.98047 57.591797 C 170.4318 63.979676 185.69405 55.939913 189.5293 46.240234 C 189.5706 46.13602 191.66698 45.608662 194.18945 45.068359 L 198.77344 44.087891 L 197.24609 48.476562 C 196.40422 50.891431 196.07874 53.822406 196.52539 54.986328 C 198.52069 60.185901 211.20272 54.89566 215.17969 47.205078 C 216.47853 44.693475 218.54987 42.873047 220.11133 42.873047 C 221.59196 42.873047 223.88051 42.460392 225.19727 41.955078 C 227.43681 41.095723 227.43993 41.333362 225.22461 45.615234 C 223.37504 49.192377 223.22717 50.634894 224.54492 52.222656 C 227.07459 55.270641 229.52745 54.716742 235.08203 49.839844 L 240.10742 45.423828 L 240.10742 51.689453 C 240.10742 55.135189 240.8777 58.723113 241.81641 59.662109 C 244.98422 62.829853 250.70783 61.272018 253.14648 56.578125 C 254.61991 53.742345 254.48254 53.765284 251.04492 56.925781 C 248.74406 59.041137 246.47474 59.965231 244.98242 59.392578 C 239.12137 57.143426 247.37254 32.008308 257.30859 21.845703 C 261.04964 18.01906 261.42161 15.841797 258.33594 15.841797 z M 240.82422 36.851562 C 243.5326 37.06887 241.90084 40.339585 236.01758 46.410156 C 229.84437 52.780181 228.05722 53.823179 226.8457 51.765625 C 224.94426 48.536339 233.99569 37.847113 239.39648 36.945312 C 239.96079 36.851083 240.43731 36.820515 240.82422 36.851562 z M 210.98828 37.195312 C 211.40067 37.195007 211.78782 37.226156 212.14453 37.285156 C 213.57108 37.521149 214.49805 38.221946 214.49805 39.316406 C 214.49805 40.72958 213.08718 41.449219 210.31641 41.449219 C 205.58329 41.449219 203.40853 39.344027 206.79883 38.042969 C 208.29367 37.469368 209.75111 37.196231 210.98828 37.195312 z M 181.8457 40.121094 C 184.25827 40.003306 186.59209 40.946375 187.11523 42.517578 C 187.50187 43.678805 186.21189 44.294922 183.40234 44.294922 C 178.65469 44.294922 176.10187 41.90015 179.4707 40.607422 C 180.22874 40.316537 181.0415 40.160357 181.8457 40.121094 z M 208.88477 43.025391 C 209.31172 43.037078 209.76701 43.068624 210.25781 43.115234 L 215.21094 43.583984 L 209.33398 49.630859 C 206.1007 52.956409 202.41814 55.677734 201.15234 55.677734 C 197.81542 55.677734 198.30395 50.784453 202.07812 46.396484 C 203.99587 44.166979 205.42998 43.224245 207.68359 43.050781 C 208.0592 43.021871 208.45781 43.013703 208.88477 43.025391 z M 181.16211 45.71875 C 183.84758 45.71875 186.04492 46.28512 186.04492 46.976562 C 186.04492 47.668004 183.4838 50.54917 180.35156 53.378906 C 171.42816 61.440751 166.75813 59.090283 173.33789 49.849609 C 175.60706 46.662917 177.39652 45.71875 181.16211 45.71875 z " />
  </g>
</svg>
