<?xml version="1.0" encoding="UTF-8" standalone="no"?>
<!-- Created with Inkscape (http://www.inkscape.org/) -->

<svg
   version="1.1"
   id="svg9"
   width="400px"
   height="200"
   viewBox="0 0 193.60218 99.347229"
   sodipodi:docname="LogoMProva.svg"
   inkscape:version="1.2.2 (732a01da63, 2022-12-09)"
   xmlns:inkscape="http://www.inkscape.org/namespaces/inkscape"
   xmlns:sodipodi="http://sodipodi.sourceforge.net/DTD/sodipodi-0.dtd"
   xmlns="http://www.w3.org/2000/svg"
   xmlns:svg="http://www.w3.org/2000/svg">
  <defs
     id="defs13" />
  <sodipodi:namedview
     id="namedview11"
     pagecolor="#ffffff"
     bordercolor="#ffffff"
     borderopacity="0.25"
     inkscape:showpageshadow="2"
     inkscape:pageopacity="0.0"
     inkscape:pagecheckerboard="0"
     inkscape:deskcolor="#d1d1d1"
     showgrid="false"
     inkscape:zoom="2.3951613"
     inkscape:cx="105.00337"
     inkscape:cy="84.754208"
     inkscape:window-width="1920"
     inkscape:window-height="1009"
     inkscape:window-x="-8"
     inkscape:window-y="-8"
     inkscape:window-maximized="1"
     inkscape:current-layer="g15" />
  <g
     inkscape:groupmode="layer"
     inkscape:label="Image"
     id="g15"
     transform="translate(-0.41750841,23.463973)">
    <path
       id="path189"
       style="fill:#e7edde;fill-opacity:1;stroke-width:2.27139"
       d="m 107.83048,-20.755487 c -6.707,0.16586 -14.76401,1.35149 -22.06622,3.49235 -49.760119,14.5889402 -98.15405,58.934582 -80.3966994,73.671859 4.04667,3.358467 16.5471504,3.513095 19.8107404,0.249454 1.46597,-1.465961 -0.99096,-1.800482 -7.1302,-0.977025 -9.2677904,1.243047 -9.3545004,1.188279 -9.3545004,-5.966091 0,-10.365334 4.8746004,-18.394769 18.9792404,-31.285596 21.07873,-19.26473078 63.532939,-38.355751 81.477669,-36.628051 6.95053,0.66919 7.47499,1.3243 8.11762,10.1340402 0.51182,7.01667 -2.23812,16.98698 -10.78885,39.1121888 -12.00095,31.051004 -13.11727,35.30115 -8.928354,33.904856 1.39874,-0.466243 4.882594,-7.066309 7.743444,-14.676166 9.69985,-25.801588 29.72174,-52.9984288 39.02905,-52.9984288 4.11934,0 2.45574,9.07534 -5.18655,28.3025548 -8.06477,20.291348 -2.83871,20.003523 12.65976,-0.706785 7.14828,-9.551919 16.01143,-20.1904798 19.69641,-23.6356998 l 6.70404,-6.26751 -6.47537,19.3742038 c -7.16389,21.419238 -9.17865,46.470688 -4.4278,55.056412 1.86487,3.369894 4.94575,5.1034 9.05307,5.1034 6.64834,0 16.3288,-5.555472 16.3288,-9.375287 0,-1.269038 -2.69532,-0.188195 -5.98688,2.400988 -3.2916,2.589134 -7.33967,4.708431 -9.00112,4.708431 -12.47859,0 -9.46163,-41.896911 5.17616,-71.79056778 6.8847,-14.06112022 5.13179,-19.33850022 -3.82494,-11.52682022 -3.12316,2.7238702 -12.26407,12.6242502 -20.32006,21.993463 -8.05645,9.369218 -13.80788,14.981517 -12.78448,12.483055 4.52915,-11.057048 8.12789,-25.1080978 7.10943,-27.7620678 -1.57779,-4.1116 -10.58863,-3.49077 -16.45352,1.13293 -2.738,2.15837 -8.1017,7.89691 -11.92179,12.7533 -7.96962,10.1302448 -8.16926,9.9485298 -3.54431,-3.15974 4.11105,-11.65185 4.37107,-20.8341502 0.68598,-24.5191802 -1.91297,-1.91296 -7.27318,-2.76434 -13.97977,-2.59847 z" />
  </g>
</svg>
