<?xml version="1.0" encoding="UTF-8" standalone="no"?>
<!-- Created with Inkscape (http://www.inkscape.org/) -->

<svg
   version="1.1"
   id="svg1586"
   width="36.5"
   height="29.382681"
   viewBox="0 0 27.848031 22.388571"
   sodipodi:docname="minimap.svg"
   inkscape:version="1.2.2 (732a01da63, 2022-12-09)"
   xmlns:inkscape="http://www.inkscape.org/namespaces/inkscape"
   xmlns:sodipodi="http://sodipodi.sourceforge.net/DTD/sodipodi-0.dtd"
   xmlns="http://www.w3.org/2000/svg"
   xmlns:svg="http://www.w3.org/2000/svg">
  <defs
     id="defs1590" />
  <sodipodi:namedview
     id="namedview1588"
     pagecolor="#ffffff"
     bordercolor="#000000"
     borderopacity="0.25"
     inkscape:showpageshadow="2"
     inkscape:pageopacity="0.0"
     inkscape:pagecheckerboard="0"
     inkscape:deskcolor="#d1d1d1"
     showgrid="false"
     inkscape:zoom="4.3102319"
     inkscape:cx="-77.026018"
     inkscape:cy="56.145471"
     inkscape:window-width="1920"
     inkscape:window-height="1009"
     inkscape:window-x="-8"
     inkscape:window-y="-8"
     inkscape:window-maximized="1"
     inkscape:current-layer="g1592" />
  <g
     inkscape:groupmode="layer"
     inkscape:label="Image"
     id="g1592"
     transform="translate(-54.970891,-51.086098)">
    <path
       id="path2145"
       style="fill:#739277;stroke-width:0.748573;fill-opacity:1"
       d="m 60.60219,51.047609 c -0.129103,-0.0018 -0.258176,0.0042 -0.38744,0.01788 -0.689412,0.07295 -1.371751,0.370365 -1.949124,0.947739 -1.0869,1.0869 -1.185075,4.076729 -0.154976,4.713363 0.411986,0.254626 -0.123185,1.202067 -1.199576,2.127942 l -1.940183,1.670465 1.257692,5.212565 c 0.691882,2.867002 1.422034,5.804112 1.62278,6.525392 0.475382,1.706929 0.784802,1.660925 3.691115,-0.555828 2.069423,-1.578425 2.960931,-1.794516 5.801177,-1.405217 2.899234,0.397382 3.721766,0.181664 6.042581,-1.588506 2.349506,-1.792056 3.110777,-1.986137 6.060464,-1.543802 1.855025,0.278199 3.372223,0.274139 3.372223,-0.0089 0,-0.283045 -0.692554,-3.459872 -1.537841,-7.060358 L 79.744731,53.5526 76.300981,53.081711 c -2.969346,-0.406999 -3.795119,-0.204159 -6.000857,1.478234 -1.406858,1.073066 -3.485015,2.015234 -4.617993,2.093669 -1.774536,0.122856 -2.01518,-0.09445 -1.731561,-1.578075 0.43298,-2.265007 -1.411828,-4.000158 -3.34838,-4.027891 z m 0.134114,2.314212 c 0.617568,0 1.122087,0.315937 1.122087,0.703353 0,0.943926 -1.169271,1.6203 -1.767324,1.022247 -0.843022,-0.843031 -0.512355,-1.7256 0.645237,-1.7256 z m 15.055044,1.162321 c 1.837137,0.04365 3.304668,0.774762 3.399045,2.10112 0.184576,2.593891 0.274891,3.059355 0.752529,3.847582 0.249492,0.411712 0.68481,1.826009 0.967111,3.142739 l 0.512614,2.39319 -2.718045,-0.441086 c -2.080426,-0.33761 -3.227134,-0.0643 -4.88622,1.162321 -1.192337,0.881533 -2.308639,1.603408 -2.48111,1.603408 -0.31209,0 -2.747144,-9.127549 -2.737416,-10.261213 0.0028,-0.327092 1.098175,-1.313117 2.433425,-2.190529 1.208003,-0.793794 2.63234,-1.227612 3.950402,-1.333689 0.274597,-0.0221 0.545217,-0.03008 0.807665,-0.02384 z m -0.315913,2.591381 c -0.538969,-0.0063 -0.768235,0.33112 -0.509633,0.749549 0.258604,0.41844 0.761315,0.581391 1.116126,0.362107 0.354816,-0.219286 0.870395,-0.03453 1.14593,0.411283 0.275535,0.445816 0.709984,0.601346 0.965621,0.345717 0.555354,-0.555362 -1.33166,-1.852416 -2.718044,-1.868656 z m -2.212881,0.18776 c -0.111847,0.01564 -0.233447,0.05327 -0.362108,0.113252 -0.51464,0.239901 -1.525168,0.642934 -2.245665,0.897073 -0.720496,0.254141 -1.309847,0.788167 -1.309847,1.186164 0,0.398008 0.421178,0.527502 0.935818,0.287601 0.514639,-0.239903 1.525167,-0.644424 2.245665,-0.898564 0.720497,-0.25414 1.309847,-0.788167 1.309847,-1.186164 0,-0.199004 -0.106084,-0.330867 -0.275679,-0.38297 -0.0848,-0.02605 -0.186185,-0.03203 -0.298031,-0.01639 z m -9.192771,0.567749 c 1.362053,-0.113423 2.991879,0.885501 3.379673,2.656948 0.173639,0.793168 0.671405,2.617927 1.105695,4.056204 1.308976,4.335077 1.120435,4.745591 -1.943163,4.248434 -2.032092,-0.329765 -3.260156,-0.06684 -4.793831,1.025227 -1.134098,0.807548 -2.226869,1.469294 -2.427464,1.469294 -0.805324,0 -1.353489,-4.091328 -0.58265,-4.348275 0.442787,-0.147596 0.804684,-0.612715 0.804684,-1.034168 0,-0.42145 -0.470965,-0.58728 -1.04609,-0.366578 -1.596045,0.612455 -2.082458,-4.012772 -0.599042,-5.695376 1.03974,-1.179344 1.256252,-1.20219 1.82395,-0.187759 0.885385,1.582092 1.874862,1.443809 2.442366,-0.344226 0.299224,-0.94277 1.018638,-1.41167 1.835872,-1.479725 z m 2.698672,4.473448 c -0.181558,0 -0.538308,0.336343 -0.792763,0.748058 -0.254455,0.411711 -0.106685,0.749548 0.329324,0.749548 0.436014,0 0.794253,-0.337837 0.794253,-0.749548 0,-0.411715 -0.149254,-0.748058 -0.330814,-0.748058 z m -1.871636,2.245665 c -0.387416,0 -0.912337,0.336343 -1.166792,0.748058 -0.254455,0.41171 0.06148,0.749548 0.703354,0.749548 0.641866,0 1.168282,-0.337838 1.168282,-0.749548 0,-0.411715 -0.317432,-0.748058 -0.704844,-0.748058 z m -3.101014,1.589996 c -0.260051,-0.0107 -0.555357,0.03642 -0.825546,0.144545 -0.597155,0.238967 -0.420528,0.415586 0.451517,0.451517 0.78911,0.0325 1.230752,-0.144658 0.982012,-0.393401 -0.12437,-0.124357 -0.347935,-0.191953 -0.607983,-0.202661 z"
       inkscape:export-filename="..\minimap.svg"
       inkscape:export-xdpi="96"
       inkscape:export-ydpi="96" />
  </g>
</svg>
