<?xml version="1.0" encoding="UTF-8" standalone="no"?>
<!-- Created with Inkscape (http://www.inkscape.org/) -->

<svg
   version="1.1"
   id="svg1586"
   width="29.15564"
   height="30.824646"
   viewBox="0 0 29.155639 30.824646"
   sodipodi:docname="papiro.svg"
   inkscape:version="1.2.2 (732a01da63, 2022-12-09)"
   xmlns:inkscape="http://www.inkscape.org/namespaces/inkscape"
   xmlns:sodipodi="http://sodipodi.sourceforge.net/DTD/sodipodi-0.dtd"
   xmlns="http://www.w3.org/2000/svg"
   xmlns:svg="http://www.w3.org/2000/svg">
  <defs
     id="defs1590" />
  <sodipodi:namedview
     id="namedview1588"
     pagecolor="#ffffff"
     bordercolor="#000000"
     borderopacity="0.25"
     inkscape:showpageshadow="2"
     inkscape:pageopacity="0.0"
     inkscape:pagecheckerboard="0"
     inkscape:deskcolor="#d1d1d1"
     showgrid="false"
     inkscape:zoom="6.0955884"
     inkscape:cx="51.512664"
     inkscape:cy="48.723762"
     inkscape:window-width="1920"
     inkscape:window-height="1009"
     inkscape:window-x="-8"
     inkscape:window-y="-8"
     inkscape:window-maximized="1"
     inkscape:current-layer="g1592" />
  <g
     inkscape:groupmode="layer"
     inkscape:label="Image"
     id="g1592"
     transform="translate(-52.690054,-463.49867)">
    <path
       id="path2145"
       style="fill:#739277;fill-opacity:1"
       d="m 66.84955,463.49948 c -1.244623,0.006 -2.661139,0.0438 -4.273437,0.0918 l -9.513672,0.2832 -0.306641,3.68555 c -0.239907,2.88448 0.140096,3.92356 1.75,4.78516 1.820907,0.97452 2.056641,2.04712 2.056641,9.37304 0,8.26673 0.860459,10.84084 4,11.96289 3.104441,1.1095 17.62353,0.6893 19.240234,-0.55664 2.975412,-2.29304 2.641647,-6.4629 -0.615234,-7.70117 -2.212284,-0.84111 -2.404595,-1.53095 -2.814453,-10.10351 -0.49483,-10.3498 -0.811065,-11.86155 -9.523438,-11.82032 z m -5.287109,2.375 c 5.979372,0 6.524402,0.18022 6.818359,2.25 0.30579,2.1531 0.01314,2.25 -6.818359,2.25 -6.831529,0 -7.126092,-0.0969 -6.820312,-2.25 0.293957,-2.06978 0.84094,-2.25 6.820312,-2.25 z m 10.796875,0.82813 c 0.09524,-0.0154 0.192545,-0.0113 0.291016,0.0137 0.472658,0.12002 0.962586,0.71406 1.271484,1.86719 0.33752,1.25999 0.619953,7.12854 0.626953,13.04101 l 0.01367,10.75 h -6.308594 c -9.189352,0 -9.842257,-0.75792 -9.486328,-11.01953 l 0.294922,-8.48047 6.279297,-0.29883 c 6.101512,-0.29 6.27227,-0.37181 6,-2.89453 -0.193309,-1.79109 0.35088,-2.87057 1.017578,-2.97851 z m -4.296875,9.67187 c -1.924994,0 -3.5,0.45 -3.5,1 0,0.55 1.575006,1 3.5,1 1.924994,0 3.5,-0.45 3.5,-1 0,-0.55 -1.575006,-1 -3.5,-1 z m -0.05859,3 c -1.892534,0 -3.441406,0.45 -3.441406,1 0,0.55 1.82614,1 4.058594,1 2.451351,0 3.814656,-0.39607 3.441406,-1 -0.33992,-0.55 -2.16606,-1 -4.058594,-1 z m 0.75,4.01563 c -2.621371,-0.009 -4.067385,0.37602 -3.691406,0.98437 0.783977,1.2685 4.537136,1.2685 6.5,0 1.096737,-0.70877 0.341987,-0.97317 -2.808594,-0.98437 z m 9.308594,3.98437 c 0.833327,0 1.5,0.88889 1.5,2 0,1.11111 -0.666673,2 -1.5,2 -0.833327,0 -1.5,-0.88889 -1.5,-2 0,-1.11111 0.666673,-2 1.5,-2 z m -9.5,0.11524 c -0.815622,0 -1.631252,0.0605 -2.25,0.17968 -1.237497,0.23835 -0.224993,0.4336 2.25,0.4336 2.474994,0 3.487497,-0.19525 2.25,-0.4336 -0.618747,-0.11917 -1.434378,-0.17968 -2.25,-0.17968 z"
       inkscape:export-filename="papiro.svg"
       inkscape:export-xdpi="96"
       inkscape:export-ydpi="96" />
  </g>
</svg>
