<?xml version="1.0" encoding="UTF-8" standalone="no"?>
<!-- Created with Inkscape (http://www.inkscape.org/) -->

<svg
   version="1.1"
   id="svg1586"
   width="34.879704"
   height="32.031536"
   viewBox="0 0 34.879703 32.031536"
   sodipodi:docname="tinihouse.svg"
   inkscape:version="1.2.2 (732a01da63, 2022-12-09)"
   xmlns:inkscape="http://www.inkscape.org/namespaces/inkscape"
   xmlns:sodipodi="http://sodipodi.sourceforge.net/DTD/sodipodi-0.dtd"
   xmlns="http://www.w3.org/2000/svg"
   xmlns:svg="http://www.w3.org/2000/svg">
  <defs
     id="defs1590" />
  <sodipodi:namedview
     id="namedview1588"
     pagecolor="#ffffff"
     bordercolor="#000000"
     borderopacity="0.25"
     inkscape:showpageshadow="2"
     inkscape:pageopacity="0.0"
     inkscape:pagecheckerboard="0"
     inkscape:deskcolor="#d1d1d1"
     showgrid="false"
     inkscape:zoom="6.0955884"
     inkscape:cx="-2.4607961"
     inkscape:cy="51.840771"
     inkscape:window-width="1920"
     inkscape:window-height="1009"
     inkscape:window-x="-8"
     inkscape:window-y="-8"
     inkscape:window-maximized="1"
     inkscape:current-layer="g1592" />
  <g
     inkscape:groupmode="layer"
     inkscape:label="Image"
     id="g1592"
     transform="translate(-55.561515,-260.3897)">
    <path
       id="path2145"
       style="fill:#739277;fill-opacity:1"
       d="m 72.85846,260.38999 c -4.288744,0.008 -8.324064,0.35163 -8.96875,0.76171 -0.644697,0.41008 -2.777773,2.76538 -4.740235,5.23438 l -3.568359,4.48828 -0.0098,10.77344 -0.0098,10.77344 17.25,-0.27344 17.25,-0.27344 0.289062,-9.39062 c 0.26274,-8.5262 0.06685,-9.72374 -2.123047,-13 -5.630509,-8.42387 -6.790836,-9.11052 -15.36914,-9.09375 z m 7.203125,1.86132 3.751953,4.3125 3.751953,4.31055 -4.1875,0.31641 c -3.591965,0.27155 -4.594026,-0.11922 -7.052735,-2.75 -1.576255,-1.68659 -3.279499,-3.06641 -3.785156,-3.06641 -0.505659,0 -1.916823,1.35 -3.136719,3 -1.943962,2.62935 -2.829255,3 -7.160156,3 h -4.941406 l 3.503906,-4.25 3.50586,-4.25 7.875,-0.31055 z m -7.171875,5.6543 c 0.486079,-0.0459 0.973888,0.33689 1.833984,1.11524 1.010726,0.91469 1.837891,1.81805 1.837891,2.00781 0,0.18975 -1.646008,0.3457 -3.65625,0.3457 -3.596535,0 -3.62418,-0.0318 -1.835938,-2.00781 0.850559,-0.93986 1.334233,-1.41506 1.820313,-1.46094 z m -16.328125,5.46875 h 6.607422 c 5.597296,0 6.515085,0.24013 6.003906,1.57227 -0.33187,0.86482 -0.154975,2.41268 0.394531,3.43945 0.665909,1.24504 0.664792,2.07304 -0.0039,2.48633 -0.551477,0.34084 -1.001953,2.61804 -1.001953,5.06054 v 4.44141 h -6 -6 v -8.5 z m 25.392578,0 h 6.607422 v 8.5 8.5 h -5.5 -5.5 v -3.30859 c 0,-1.81988 -0.63522,-4.17652 -1.410157,-5.23633 -0.940716,-1.2865 -1.106442,-2.48964 -0.501953,-3.61914 0.497967,-0.93048 0.632651,-2.39885 0.300781,-3.26367 -0.511199,-1.33214 0.40661,-1.57227 6.003907,-1.57227 z m -9.361328,1.24024 c 1.185532,0.034 2.294373,1.42131 1.521484,2.67187 -0.369537,0.59792 -1.067655,1.08789 -1.552734,1.08789 -1.544583,0 -2.267197,-2.13319 -1.113282,-3.28711 0.344875,-0.34488 0.749353,-0.48396 1.144532,-0.47265 z m -11.53125,0.25976 c -2.653659,0 -3.037264,0.37519 -3.314453,3.25 -0.2837,2.94242 -0.0471,3.26474 2.5,3.40039 l 2.814453,0.15039 -2.75,0.41602 c -2.280372,0.34545 -2.75,0.917 -2.75,3.34961 0,2.68293 0.296701,2.93359 3.480468,2.93359 h 3.482422 l -0.232422,-6.75 -0.230468,-6.75 z m 23,0 c -2.653659,0 -3.037264,0.37519 -3.314454,3.25 -0.301479,3.12685 -0.174824,3.25 3.314454,3.25 3.489277,0 3.613979,-0.12315 3.3125,-3.25 -0.27718,-2.87481 -0.658842,-3.25 -3.3125,-3.25 z m -23,1.5 c 0.824996,0 1.5,0.675 1.5,1.5 0,0.825 -0.675004,1.5 -1.5,1.5 -0.824997,0 -1.5,-0.675 -1.5,-1.5 0,-0.825 0.675003,-1.5 1.5,-1.5 z m 23,0 c 0.824996,0 1.5,0.675 1.5,1.5 0,0.825 -0.675004,1.5 -1.5,1.5 -0.824997,0 -1.5,-0.675 -1.5,-1.5 0,-0.825 0.675003,-1.5 1.5,-1.5 z m -11.935547,5.10938 c 0.201695,0.009 0.429087,0.0339 0.685547,0.0703 1.870412,0.26564 2.301021,1.03729 2.55664,4.57031 0.287397,3.9723 0.140379,4.25 -2.25,4.25 -2.370201,0 -2.55664,-0.33543 -2.55664,-4.57031 0,-3.1251 0.111876,-4.11523 1.033203,-4.29297 0.153555,-0.0297 0.329554,-0.0364 0.53125,-0.0273 z m 11.935547,0.89062 c -3.222208,0 -3.5,0.2381 -3.5,3 0,2.7619 0.277792,3 3.5,3 3.222207,0 3.5,-0.2381 3.5,-3 0,-2.7619 -0.277793,-3 -3.5,-3 z m -23,1 c 0.824996,0 1.5,0.675 1.5,1.5 0,0.825 -0.675004,1.5 -1.5,1.5 -0.824997,0 -1.5,-0.675 -1.5,-1.5 0,-0.825 0.675003,-1.5 1.5,-1.5 z m 23,0 c 0.824996,0 1.5,0.675 1.5,1.5 0,0.825 -0.675004,1.5 -1.5,1.5 -0.824997,0 -1.5,-0.675 -1.5,-1.5 0,-0.825 0.675003,-1.5 1.5,-1.5 z"
       inkscape:export-filename="tinihouse.svg"
       inkscape:export-xdpi="96"
       inkscape:export-ydpi="96" />
  </g>
</svg>
