<?xml version="1.0" encoding="UTF-8" standalone="no"?>
<!-- Created with Inkscape (http://www.inkscape.org/) -->

<svg
   version="1.1"
   id="svg490"
   width="75.989632"
   height="91.896507"
   viewBox="0 0 75.989632 91.896508"
   sodipodi:docname="up.svg"
   inkscape:version="1.2.2 (732a01da63, 2022-12-09)"
   xmlns:inkscape="http://www.inkscape.org/namespaces/inkscape"
   xmlns:sodipodi="http://sodipodi.sourceforge.net/DTD/sodipodi-0.dtd"
   xmlns="http://www.w3.org/2000/svg"
   xmlns:svg="http://www.w3.org/2000/svg">
  <defs
     id="defs494" />
  <sodipodi:namedview
     id="namedview492"
     pagecolor="#ffffff"
     bordercolor="#000000"
     borderopacity="0.25"
     inkscape:showpageshadow="2"
     inkscape:pageopacity="0.0"
     inkscape:pagecheckerboard="0"
     inkscape:deskcolor="#d1d1d1"
     showgrid="false"
     inkscape:zoom="9.0210175"
     inkscape:cx="38.022318"
     inkscape:cy="46.00368"
     inkscape:window-width="1920"
     inkscape:window-height="1009"
     inkscape:window-x="-8"
     inkscape:window-y="-8"
     inkscape:window-maximized="1"
     inkscape:current-layer="g496" />
  <g
     inkscape:groupmode="layer"
     inkscape:label="Image"
     id="g496"
     transform="translate(-19.646174,-20.154997)">
    <path
       style="fill:#739277;fill-opacity:1"
       d="m 78.034551,37.872543 c 18.60902,18.630588 19.68767,20.291771 15.739581,24.23986 -3.677974,3.677974 -5.719763,2.58757 -18.15733,-9.696803 L 63.774132,40.718798 v 34.041815 c 0,31.709167 -0.125311,34.155227 -1.828741,35.696807 -2.309897,2.09043 -6.551745,2.13164 -8.59983,0.0836 -1.365894,-1.3659 -1.571429,-5.94373 -1.571429,-35.000006 0,-18.385714 -0.313795,-33.428571 -0.697321,-33.428571 -0.383527,0 -5.71443,4.95 -11.846452,11 -11.721572,11.564785 -13.813101,12.643126 -17.456223,9 -4.40232,-4.402319 -3.23624,-6.22896 15.749996,-24.672119 13.219142,-12.841072 18.390808,-17.253252 20.260419,-17.285122 1.945897,-0.0332 6.499543,3.95095 20.25,17.717341 z"
       id="path617" />
  </g>
</svg>
